<svg width="377" height="151" viewBox="0 0 377 151" fill="none" xmlns="http://www.w3.org/2000/svg">
<g filter="url(#filter0_f_231_47892)">
<path d="M322.197 34.5108C325.319 33.9644 328.272 33.7091 331.121 35.0572C331.29 35.1378 331.549 35.0751 331.754 35.0258C333.076 34.7123 334.389 34.1301 335.715 34.1077C340.077 34.0316 344.448 34.0316 348.805 34.2331C359.512 34.7302 368.559 43.7501 368.837 54.2704C368.997 60.2045 368.956 66.1476 368.783 72.0818C368.591 78.6743 365.264 83.7037 360.073 87.6628C359.886 87.8061 359.694 87.9405 359.516 88.0883C358.026 89.3154 357.885 90.4127 359.371 91.6129C364.434 95.6974 366.782 101.184 367.976 107.288C369.052 112.801 369.261 118.386 368.691 123.939C367.807 132.597 361.321 139.839 352.702 141.912C350.351 142.476 347.867 142.624 345.428 142.727C342.279 142.862 339.111 142.857 335.961 142.714C334.599 142.651 333.259 142.1 331.905 141.787C331.636 141.724 331.29 141.59 331.094 141.693C328.783 142.897 326.322 142.875 323.819 142.62C323.418 142.579 323.017 142.561 322.621 142.53C322.602 142.45 322.552 142.369 322.579 142.329C325.114 138.387 325.547 133.998 325.451 129.488C325.396 126.851 325.355 124.213 325.351 121.575C325.337 113.854 325.36 106.133 325.342 98.4115C325.332 95.2585 324.48 92.3564 322.456 89.826C322.52 89.7409 322.561 89.6334 322.634 89.602C324.553 88.7914 325.232 87.2329 325.31 85.3205C325.346 84.4293 325.314 83.538 325.314 82.6513C325.314 69.8783 325.328 57.1053 325.305 44.3324C325.301 41.3362 324.922 38.3982 323.136 35.8275C322.858 35.4244 322.561 35.0303 322.192 34.5198L322.197 34.5108ZM357.233 63.241C356.795 57.8353 356.463 52.7342 355.943 47.6555C355.51 43.4725 353.163 40.745 349.147 40.1449C346.531 39.7508 343.796 39.8627 341.139 40.0687C339.038 40.23 337.981 41.5243 337.666 43.6024C337.534 44.4802 337.456 45.3759 337.452 46.2626C337.424 56.0305 337.406 65.7983 337.42 75.5706C337.42 77.7785 337.443 79.9955 337.648 82.19C337.867 84.5368 339.093 85.7325 341.472 85.8938C343.641 86.0416 345.838 86.0819 347.999 85.9162C352.338 85.5803 355.191 83.1484 355.752 78.9161C356.454 73.6269 356.773 68.2929 357.228 63.2455L357.233 63.241ZM337.479 114.342C337.479 114.342 337.434 114.342 337.411 114.342C337.411 117.804 337.383 121.266 337.42 124.732C337.447 127.469 337.466 130.205 337.657 132.932C337.826 135.302 339.043 136.6 341.445 136.82C343.701 137.03 346.021 137.129 348.263 136.856C352.743 136.309 355.063 133.886 355.825 129.511C357.269 121.221 357.402 112.913 356.121 104.605C355.729 102.044 355.146 99.4863 354.348 97.0231C353.491 94.3852 351.449 92.8132 348.673 92.231C346.253 91.7204 343.815 91.6801 341.372 92.0608C339.239 92.3922 338.09 93.4984 337.703 95.5675C337.579 96.2125 337.493 96.8753 337.493 97.5292C337.475 103.136 337.484 108.744 337.484 114.346L337.479 114.342ZM332.247 51.7355C330.305 57.0516 329.858 117.029 331.7 124.979C333.632 112.716 334.024 59.7343 332.247 51.7355ZM361.946 76.7574C366.157 66.4298 365.382 56.1559 361.777 45.9044C362.57 56.1872 363.318 66.4701 361.946 76.7574ZM361.855 99.5356C362.105 104.695 362.516 109.854 362.561 115.018C362.607 120.177 362.283 125.337 362.119 130.586C365.993 120.164 365.396 109.841 361.855 99.5401V99.5356Z" fill="white"/>
<path d="M269.484 90.0858C271.466 88.7691 271.772 86.8119 271.767 84.7339C271.758 80.6404 271.74 76.547 271.735 72.458C271.731 63.053 271.712 53.6434 271.744 44.2384C271.758 40.8705 271.694 37.5518 269.306 34.7169C272 33.9376 274.57 33.7226 277.104 34.7303C277.843 35.0214 278.444 35.0528 279.183 34.7661C281.69 33.7943 284.228 33.8659 286.867 34.7124C285.391 36.8576 284.484 39.2 284.297 41.7259C284.133 43.9249 284.201 46.1418 284.196 48.3497C284.187 57.392 284.196 66.4343 284.196 75.4811C284.196 78.5489 284.196 81.6212 284.196 84.6891C284.196 87.5643 284.547 88.2451 286.927 89.9783C284.042 93.4313 284.133 97.5472 284.178 101.699C284.251 108.529 284.206 115.363 284.192 122.193C284.187 125.086 284.579 127.912 285.45 130.675C287.1 135.897 292.287 138.379 297.464 136.426C299.465 135.673 300.773 134.213 301.685 132.382C302.793 130.16 303.367 127.796 303.376 125.314C303.399 116.075 303.358 106.831 303.44 97.5919C303.467 94.7256 302.825 92.1773 300.773 89.9022C303.431 88.778 303.494 86.5164 303.481 84.2188C303.481 83.8874 303.481 83.5605 303.481 83.2291C303.458 75.0108 303.426 66.7926 303.417 58.5789C303.417 53.7285 303.463 48.8782 303.476 44.0279C303.481 41.9453 303.513 39.8449 302.601 37.9056C302.1 36.8397 301.425 35.85 300.783 34.7437C303.422 33.9152 306.092 33.7002 308.763 34.7617C309.452 35.0349 310.035 35.0796 310.755 34.793C313.312 33.7719 315.942 33.9466 318.577 34.4616C318.599 34.5377 318.649 34.6228 318.627 34.6497C316.357 37.5115 315.851 40.8346 315.865 44.3459C315.91 57.616 315.901 70.8816 315.91 84.1517C315.91 84.4159 315.91 84.6801 315.91 84.9444C315.883 87.0269 316.111 88.9751 318.695 89.6782C316.247 92.6296 315.846 95.9976 315.874 99.4864C315.919 105.394 315.992 111.301 315.956 117.208C315.938 120.334 316.02 123.474 315.204 126.551C312.82 135.517 305.427 141.697 295.933 142.606C285.35 143.619 275.518 137.013 272.925 126.931C272.218 124.177 271.854 121.275 271.79 118.431C271.63 111.373 271.74 104.305 271.74 97.2426C271.74 94.2196 271.261 92.67 269.488 90.0858H269.484ZM278.349 124.831C280.454 100.36 280.619 75.8752 278.9 51.3728C276.822 75.8439 276.617 100.328 278.349 124.831ZM309.926 125.032C312.036 100.521 312.186 76.0006 310.486 51.4624C308.399 75.9693 308.235 100.494 309.926 125.032Z" fill="white"/>
<path d="M42.5473 89.8485C44.8172 88.8587 45.2319 87.0045 45.2274 84.9041C45.2046 76.6545 45.1681 68.4004 45.2046 60.1509C45.2183 57.4503 45.2228 54.7228 45.6148 52.0625C47.1143 41.923 56.3714 34.2735 66.7998 34.0944C77.0778 33.9197 86.4351 41.0138 88.3722 50.7906C88.8599 53.2583 88.8827 55.8424 88.9009 58.3729C88.9602 66.9539 88.9237 75.5349 88.9237 84.1158C88.9237 84.3487 88.9237 84.5771 88.9237 84.81C88.9055 87.018 89.4023 88.9617 91.7815 89.947C89.4251 92.7416 88.9009 95.9886 88.9237 99.3923C88.9556 104.108 89.0285 108.829 89.0103 113.545C89.0012 116.81 89.024 120.083 88.7687 123.335C88.0805 132.252 81.7223 139.65 72.9256 141.979C59.6986 145.482 46.5309 136.471 45.3687 123.066C45.159 120.67 45.2 118.256 45.1909 115.847C45.1681 109.742 45.2274 103.638 45.1727 97.5293C45.1408 94.4032 44.4297 92.549 42.5428 89.8485H42.5473ZM74.2975 90.1261C76.4989 88.5138 76.9502 86.3193 76.8864 83.8516C76.7952 80.3897 76.8362 76.9232 76.8317 73.4568C76.8271 66.9539 76.8453 60.4509 76.8226 53.9525C76.8089 50.4905 76.385 47.1047 74.6211 44.0145C72.9712 41.1258 70.4187 39.7732 67.0824 39.7732C63.7688 39.7732 61.2483 41.1482 59.6758 44.0234C59.1107 45.058 58.4999 46.1687 58.3358 47.3018C57.9302 50.1322 57.5792 52.9896 57.5473 55.8424C57.4516 65.2475 57.5245 74.6526 57.5017 84.0621C57.4972 86.4402 57.561 88.7333 60.2228 89.9649C58.0077 92.7103 57.3695 95.7468 57.4835 99.0699C57.6248 103.222 57.5655 107.382 57.5792 111.543C57.5883 115.502 57.5655 119.465 57.5883 123.425C57.6066 126.546 57.9712 129.601 59.4343 132.449C61.1116 135.705 63.8463 137.111 67.4607 137.008C71.0249 136.905 73.5591 135.257 75.0313 132.046C76.2255 129.444 76.7451 126.685 76.7724 123.872C76.8499 115.291 76.8499 106.715 76.8499 98.1339C76.8499 95.272 76.2437 92.5625 74.2929 90.1261H74.2975ZM52.0232 51.8162C49.9539 76.1619 49.7579 100.516 51.4762 124.885C53.5592 100.543 53.746 76.1842 52.0232 51.8162ZM83.2173 124.862C85.1954 100.512 85.3959 76.1619 83.7277 51.8072C81.6858 61.8706 81.3303 117.799 83.2173 124.862Z" fill="white"/>
<path d="M95.6463 90.0009C97.8705 88.7827 98.0984 86.7674 98.0939 84.6535C98.0711 76.5696 98.0392 68.4813 98.0346 60.3974C98.0346 56.6712 98.0483 52.9495 99.1878 49.3263C101.927 40.602 110.487 34.2871 119.552 34.0946C129.197 33.8885 138.285 40.2795 140.938 48.9814C141.567 51.0461 141.808 53.2406 142.077 55.3948C142.415 58.0775 142.925 60.6751 144.78 62.874C142.251 63.9444 139.771 64.0474 137.296 63.0398C136.457 62.6994 135.769 62.7173 134.931 63.0621C132.757 63.9489 130.473 63.8996 128.19 63.5593C127.456 63.4473 127.301 62.9681 127.633 62.4217C130.993 56.9041 130.218 51.158 128.381 45.4836C126.553 39.8272 119.106 37.8297 114.612 41.6231C112.779 43.1727 111.813 45.2731 111.348 47.5214C110.888 49.7383 110.546 52.0179 110.528 54.2751C110.441 64.343 110.51 74.4109 110.473 84.4743C110.464 86.745 110.733 88.7917 113.281 89.8621C110.569 92.9702 110.455 96.6069 110.478 100.311C110.528 108.233 110.496 116.151 110.532 124.074C110.546 126.909 111.134 129.645 112.346 132.225C113.773 135.266 116.234 136.861 119.63 136.999C123.098 137.143 125.856 135.902 127.615 132.848C128.914 130.595 129.566 128.159 129.657 125.579C129.712 124.061 129.726 122.542 129.73 121.029C129.757 112.515 129.776 104.001 129.798 95.4872C129.798 95.2543 129.826 95.0214 129.794 94.793C129.68 94.0182 129.976 93.0105 128.983 92.6478C127.893 92.2492 126.266 92.921 125.783 93.951C125.409 94.7482 125.172 95.6216 124.999 96.4859C124.584 98.5013 123.668 100.212 122.014 101.497C120.783 102.456 119.397 102.751 117.807 102.317V86.848C118.135 86.8345 118.522 86.7987 118.91 86.8032C125.76 86.8883 132.606 86.9779 139.457 87.063C139.757 87.063 140.058 87.045 140.359 87.0271C141.681 86.9331 142.041 87.2152 142.082 88.5543C142.132 90.0726 142.127 91.5908 142.123 93.1091C142.114 102.447 142.114 111.789 142.086 121.127C142.05 133.322 131.995 142.969 119.602 142.723C109.242 142.517 100.341 134.93 98.6089 124.737C98.2397 122.569 98.0711 120.348 98.0392 118.149C97.9617 112.537 98.0118 106.926 98.0164 101.314C98.0164 99.8941 98.0802 98.4789 98.062 97.0592C98.0255 94.4885 97.2962 92.1283 95.6326 90.0009H95.6463ZM104.548 125.015C106.494 114.082 106.9 63.7429 105.14 51.5477C103.176 57.4684 102.706 115.807 104.548 125.015ZM136.594 91.4027C134.68 94.802 134.251 120.29 136.024 125.449C137.752 118.722 138.376 100.785 136.594 91.4027Z" fill="white"/>
<path d="M201.549 114.109C202.908 113.383 204.33 113.244 205.715 113.531C208.56 114.122 211.358 114.01 214.211 113.594C215.519 113.401 216.9 113.692 218.546 113.782C215.989 117.629 216.258 121.776 215.419 125.673C213.505 134.563 207.694 139.923 198.933 142.082C187.024 145.02 174.986 137.303 172.684 125.458C172.315 123.559 172.197 121.593 172.183 119.653C172.128 112.326 172.183 104.999 172.147 97.6723C172.128 94.6179 171.577 93.1758 169.476 89.8482C172.024 88.7509 172.206 86.5475 172.201 84.2096C172.179 74.7688 172.169 65.3323 172.201 55.8915C172.215 51.4442 173.313 47.2836 175.893 43.5574C181.016 36.1543 190.437 32.5804 199.207 34.7256C208.231 36.9336 214.685 44.1127 215.72 53.0879C215.866 54.3329 215.998 55.578 216.185 56.8185C216.527 59.1071 217.333 61.212 218.951 63.0393C216.098 63.8858 213.4 64.0649 210.715 62.8333C210.378 62.681 209.854 62.6452 209.526 62.793C207.101 63.8768 204.59 63.8947 202.024 63.523C201.486 63.4469 201.317 63.205 201.508 62.7168C201.736 62.1346 201.887 61.5031 202.229 60.9926C203.003 59.8281 203.409 58.5876 203.532 57.2037C203.897 53.1506 203.705 49.1691 202.197 45.3175C200.697 41.4972 197.844 39.6252 193.733 39.7775C189.722 39.9253 186.809 42.1242 185.67 45.9221C184.881 48.5555 184.43 51.2382 184.439 54.0105C184.462 64.141 184.462 74.2761 184.394 84.4067C184.38 86.7042 184.717 88.6972 187.083 89.8572C184.467 93.3012 184.334 97.1797 184.38 101.152C184.457 107.718 184.38 114.288 184.366 120.854C184.362 124.298 184.681 127.715 185.715 131.015C186.905 134.795 189.941 136.95 193.911 136.999C197.994 137.048 200.957 135.118 202.242 131.262C204.157 125.52 204.635 120.137 201.54 114.095L201.549 114.109ZM178.482 124.916C180.51 115.717 180.921 58.8697 179.024 51.4353C177.033 75.9198 176.828 100.418 178.482 124.916Z" fill="white"/>
<path d="M268.108 116.183C268.167 117.387 268.263 118.44 268.267 119.488C268.285 123.644 268.313 127.805 268.267 131.961C268.226 135.508 268.513 138.947 270.993 142.082C269.247 142.244 267.729 142.45 266.207 142.508C255.902 142.915 245.601 142.866 235.3 142.315C233.86 142.239 232.433 142.002 230.997 141.872C230.651 141.84 230.264 141.881 229.94 142.006C227.743 142.844 225.496 142.942 223.203 142.548C222.365 142.405 222.114 141.948 222.547 141.222C224.092 138.62 224.461 135.759 224.466 132.83C224.484 121.311 224.48 109.792 224.466 98.2726C224.466 95.2765 223.892 92.4281 221.877 90.0589C221.918 89.9648 221.927 89.8797 221.968 89.8618C223.864 88.8765 224.475 87.2284 224.471 85.2444C224.471 71.1502 224.48 57.0606 224.457 42.9664C224.452 39.9568 223.564 37.1845 221.64 34.6183C224.32 33.9152 226.873 33.6644 229.384 34.7034C230.104 35.0035 230.701 35.0303 231.389 34.7751C233.864 33.8569 236.362 33.9555 238.791 34.587C238.203 36.5531 237.515 38.443 237.091 40.3912C236.294 44.0323 236.576 47.7316 236.636 51.4265C236.731 57.392 236.649 63.362 236.667 69.3319C236.681 74.6436 236.754 79.9552 236.754 85.2668C236.754 87.2642 237.023 89.0557 239.389 89.8126C236.996 92.9118 236.754 96.3961 236.754 99.97C236.763 109.935 236.708 119.9 236.713 129.865C236.713 131.177 236.822 132.507 237.078 133.792C237.451 135.687 238.55 136.766 240.51 136.838C244.297 136.977 248.094 137.017 251.877 136.86C254.265 136.762 255.487 135.427 255.806 133.094C255.97 131.889 256.066 130.657 256.016 129.448C255.87 126.156 257.324 123.586 259.607 121.369C261.727 119.309 264.138 117.656 266.909 116.541C267.242 116.406 267.602 116.326 268.108 116.174V116.183ZM231.403 51.6907C229.343 76.0543 229.097 100.431 230.87 124.817C232.939 100.454 233.14 76.0767 231.403 51.6907Z" fill="white"/>
</g>
<path d="M322.197 34.5108C325.319 33.9644 328.272 33.7091 331.121 35.0572C331.29 35.1378 331.549 35.0751 331.754 35.0258C333.076 34.7123 334.389 34.1301 335.715 34.1077C340.077 34.0316 344.448 34.0316 348.805 34.2331C359.512 34.7302 368.559 43.7501 368.837 54.2704C368.997 60.2045 368.956 66.1476 368.783 72.0818C368.591 78.6743 365.264 83.7037 360.073 87.6628C359.886 87.8061 359.694 87.9405 359.516 88.0883C358.026 89.3154 357.885 90.4127 359.371 91.6129C364.434 95.6974 366.782 101.184 367.976 107.288C369.052 112.801 369.261 118.386 368.691 123.939C367.807 132.597 361.321 139.839 352.702 141.912C350.351 142.476 347.867 142.624 345.428 142.727C342.279 142.862 339.111 142.857 335.961 142.714C334.599 142.651 333.259 142.1 331.905 141.787C331.636 141.724 331.29 141.59 331.094 141.693C328.783 142.897 326.322 142.875 323.819 142.62C323.418 142.579 323.017 142.561 322.621 142.53C322.602 142.45 322.552 142.369 322.579 142.329C325.114 138.387 325.547 133.998 325.451 129.488C325.396 126.851 325.355 124.213 325.351 121.575C325.337 113.854 325.36 106.133 325.342 98.4115C325.332 95.2585 324.48 92.3564 322.456 89.826C322.52 89.7409 322.561 89.6334 322.634 89.602C324.553 88.7914 325.232 87.2329 325.31 85.3205C325.346 84.4293 325.314 83.538 325.314 82.6513C325.314 69.8783 325.328 57.1053 325.305 44.3324C325.301 41.3362 324.922 38.3982 323.136 35.8275C322.858 35.4244 322.561 35.0303 322.192 34.5198L322.197 34.5108ZM357.233 63.241C356.795 57.8353 356.463 52.7342 355.943 47.6555C355.51 43.4725 353.163 40.745 349.147 40.1449C346.531 39.7508 343.796 39.8627 341.139 40.0687C339.038 40.23 337.981 41.5243 337.666 43.6024C337.534 44.4802 337.456 45.3759 337.452 46.2626C337.424 56.0305 337.406 65.7983 337.42 75.5706C337.42 77.7785 337.443 79.9955 337.648 82.19C337.867 84.5368 339.093 85.7325 341.472 85.8938C343.641 86.0416 345.838 86.0819 347.999 85.9162C352.338 85.5803 355.191 83.1484 355.752 78.9161C356.454 73.6269 356.773 68.2929 357.228 63.2455L357.233 63.241ZM337.479 114.342C337.479 114.342 337.434 114.342 337.411 114.342C337.411 117.804 337.383 121.266 337.42 124.732C337.447 127.469 337.466 130.205 337.657 132.932C337.826 135.302 339.043 136.6 341.445 136.82C343.701 137.03 346.021 137.129 348.263 136.856C352.743 136.309 355.063 133.886 355.825 129.511C357.269 121.221 357.402 112.913 356.121 104.605C355.729 102.044 355.146 99.4863 354.348 97.0231C353.491 94.3852 351.449 92.8132 348.673 92.231C346.253 91.7204 343.815 91.6801 341.372 92.0608C339.239 92.3922 338.09 93.4984 337.703 95.5675C337.579 96.2125 337.493 96.8753 337.493 97.5292C337.475 103.136 337.484 108.744 337.484 114.346L337.479 114.342ZM332.247 51.7355C330.305 57.0516 329.858 117.029 331.7 124.979C333.632 112.716 334.024 59.7343 332.247 51.7355ZM361.946 76.7574C366.157 66.4298 365.382 56.1559 361.777 45.9044C362.57 56.1872 363.318 66.4701 361.946 76.7574ZM361.855 99.5356C362.105 104.695 362.516 109.854 362.561 115.018C362.607 120.177 362.283 125.337 362.119 130.586C365.993 120.164 365.396 109.841 361.855 99.5401V99.5356Z" fill="white"/>
<path d="M269.484 90.0858C271.466 88.7691 271.772 86.8119 271.767 84.7339C271.758 80.6404 271.74 76.547 271.735 72.458C271.731 63.053 271.712 53.6434 271.744 44.2384C271.758 40.8705 271.694 37.5518 269.306 34.7169C272 33.9376 274.57 33.7226 277.104 34.7303C277.843 35.0214 278.444 35.0528 279.183 34.7661C281.69 33.7943 284.228 33.8659 286.867 34.7124C285.391 36.8576 284.484 39.2 284.297 41.7259C284.133 43.9249 284.201 46.1418 284.196 48.3497C284.187 57.392 284.196 66.4343 284.196 75.4811C284.196 78.5489 284.196 81.6212 284.196 84.6891C284.196 87.5643 284.547 88.2451 286.927 89.9783C284.042 93.4313 284.133 97.5472 284.178 101.699C284.251 108.529 284.206 115.363 284.192 122.193C284.187 125.086 284.579 127.912 285.45 130.675C287.1 135.897 292.287 138.379 297.464 136.426C299.465 135.673 300.773 134.213 301.685 132.382C302.793 130.16 303.367 127.796 303.376 125.314C303.399 116.075 303.358 106.831 303.44 97.5919C303.467 94.7256 302.825 92.1773 300.773 89.9022C303.431 88.778 303.494 86.5164 303.481 84.2188C303.481 83.8874 303.481 83.5605 303.481 83.2291C303.458 75.0108 303.426 66.7926 303.417 58.5789C303.417 53.7285 303.463 48.8782 303.476 44.0279C303.481 41.9453 303.513 39.8449 302.601 37.9056C302.1 36.8397 301.425 35.85 300.783 34.7437C303.422 33.9152 306.092 33.7002 308.763 34.7617C309.452 35.0349 310.035 35.0796 310.755 34.793C313.312 33.7719 315.942 33.9466 318.577 34.4616C318.599 34.5377 318.649 34.6228 318.627 34.6497C316.357 37.5115 315.851 40.8346 315.865 44.3459C315.91 57.616 315.901 70.8816 315.91 84.1517C315.91 84.4159 315.91 84.6801 315.91 84.9444C315.883 87.0269 316.111 88.9751 318.695 89.6782C316.247 92.6296 315.846 95.9976 315.874 99.4864C315.919 105.394 315.992 111.301 315.956 117.208C315.938 120.334 316.02 123.474 315.204 126.551C312.82 135.517 305.427 141.697 295.933 142.606C285.35 143.619 275.518 137.013 272.925 126.931C272.218 124.177 271.854 121.275 271.79 118.431C271.63 111.373 271.74 104.305 271.74 97.2426C271.74 94.2196 271.261 92.67 269.488 90.0858H269.484ZM278.349 124.831C280.454 100.36 280.619 75.8752 278.9 51.3728C276.822 75.8439 276.617 100.328 278.349 124.831ZM309.926 125.032C312.036 100.521 312.186 76.0006 310.486 51.4624C308.399 75.9693 308.235 100.494 309.926 125.032Z" fill="white"/>
<path d="M42.5473 89.8485C44.8172 88.8587 45.2319 87.0045 45.2274 84.9041C45.2046 76.6545 45.1681 68.4004 45.2046 60.1509C45.2183 57.4503 45.2228 54.7228 45.6148 52.0625C47.1143 41.923 56.3714 34.2735 66.7998 34.0944C77.0778 33.9197 86.4351 41.0138 88.3722 50.7906C88.8599 53.2583 88.8827 55.8424 88.9009 58.3729C88.9602 66.9539 88.9237 75.5349 88.9237 84.1158C88.9237 84.3487 88.9237 84.5771 88.9237 84.81C88.9055 87.018 89.4023 88.9617 91.7815 89.947C89.4251 92.7416 88.9009 95.9886 88.9237 99.3923C88.9556 104.108 89.0285 108.829 89.0103 113.545C89.0012 116.81 89.024 120.083 88.7687 123.335C88.0805 132.252 81.7223 139.65 72.9256 141.979C59.6986 145.482 46.5309 136.471 45.3687 123.066C45.159 120.67 45.2 118.256 45.1909 115.847C45.1681 109.742 45.2274 103.638 45.1727 97.5293C45.1408 94.4032 44.4297 92.549 42.5428 89.8485H42.5473ZM74.2975 90.1261C76.4989 88.5138 76.9502 86.3193 76.8864 83.8516C76.7952 80.3897 76.8362 76.9232 76.8317 73.4568C76.8271 66.9539 76.8453 60.4509 76.8226 53.9525C76.8089 50.4905 76.385 47.1047 74.6211 44.0145C72.9712 41.1258 70.4187 39.7732 67.0824 39.7732C63.7688 39.7732 61.2483 41.1482 59.6758 44.0234C59.1107 45.058 58.4999 46.1687 58.3358 47.3018C57.9302 50.1322 57.5792 52.9896 57.5473 55.8424C57.4516 65.2475 57.5245 74.6526 57.5017 84.0621C57.4972 86.4402 57.561 88.7333 60.2228 89.9649C58.0077 92.7103 57.3695 95.7468 57.4835 99.0699C57.6248 103.222 57.5655 107.382 57.5792 111.543C57.5883 115.502 57.5655 119.465 57.5883 123.425C57.6066 126.546 57.9712 129.601 59.4343 132.449C61.1116 135.705 63.8463 137.111 67.4607 137.008C71.0249 136.905 73.5591 135.257 75.0313 132.046C76.2255 129.444 76.7451 126.685 76.7724 123.872C76.8499 115.291 76.8499 106.715 76.8499 98.1339C76.8499 95.272 76.2437 92.5625 74.2929 90.1261H74.2975ZM52.0232 51.8162C49.9539 76.1619 49.7579 100.516 51.4762 124.885C53.5592 100.543 53.746 76.1842 52.0232 51.8162ZM83.2173 124.862C85.1954 100.512 85.3959 76.1619 83.7277 51.8072C81.6858 61.8706 81.3303 117.799 83.2173 124.862Z" fill="white"/>
<path d="M95.6463 90.0009C97.8705 88.7827 98.0984 86.7674 98.0939 84.6535C98.0711 76.5696 98.0392 68.4813 98.0346 60.3974C98.0346 56.6712 98.0483 52.9495 99.1878 49.3263C101.927 40.602 110.487 34.2871 119.552 34.0946C129.197 33.8885 138.285 40.2795 140.938 48.9814C141.567 51.0461 141.808 53.2406 142.077 55.3948C142.415 58.0775 142.925 60.6751 144.78 62.874C142.251 63.9444 139.771 64.0474 137.296 63.0398C136.457 62.6994 135.769 62.7173 134.931 63.0621C132.757 63.9489 130.473 63.8996 128.19 63.5593C127.456 63.4473 127.301 62.9681 127.633 62.4217C130.993 56.9041 130.218 51.158 128.381 45.4836C126.553 39.8272 119.106 37.8297 114.612 41.6231C112.779 43.1727 111.813 45.2731 111.348 47.5214C110.888 49.7383 110.546 52.0179 110.528 54.2751C110.441 64.343 110.51 74.4109 110.473 84.4743C110.464 86.745 110.733 88.7917 113.281 89.8621C110.569 92.9702 110.455 96.6069 110.478 100.311C110.528 108.233 110.496 116.151 110.532 124.074C110.546 126.909 111.134 129.645 112.346 132.225C113.773 135.266 116.234 136.861 119.63 136.999C123.098 137.143 125.856 135.902 127.615 132.848C128.914 130.595 129.566 128.159 129.657 125.579C129.712 124.061 129.726 122.542 129.73 121.029C129.757 112.515 129.776 104.001 129.798 95.4872C129.798 95.2543 129.826 95.0214 129.794 94.793C129.68 94.0182 129.976 93.0105 128.983 92.6478C127.893 92.2492 126.266 92.921 125.783 93.951C125.409 94.7482 125.172 95.6216 124.999 96.4859C124.584 98.5013 123.668 100.212 122.014 101.497C120.783 102.456 119.397 102.751 117.807 102.317V86.848C118.135 86.8345 118.522 86.7987 118.91 86.8032C125.76 86.8883 132.606 86.9779 139.457 87.063C139.757 87.063 140.058 87.045 140.359 87.0271C141.681 86.9331 142.041 87.2152 142.082 88.5543C142.132 90.0726 142.127 91.5908 142.123 93.1091C142.114 102.447 142.114 111.789 142.086 121.127C142.05 133.322 131.995 142.969 119.602 142.723C109.242 142.517 100.341 134.93 98.6089 124.737C98.2397 122.569 98.0711 120.348 98.0392 118.149C97.9617 112.537 98.0118 106.926 98.0164 101.314C98.0164 99.8941 98.0802 98.4789 98.062 97.0592C98.0255 94.4885 97.2962 92.1283 95.6326 90.0009H95.6463ZM104.548 125.015C106.494 114.082 106.9 63.7429 105.14 51.5477C103.176 57.4684 102.706 115.807 104.548 125.015ZM136.594 91.4027C134.68 94.802 134.251 120.29 136.024 125.449C137.752 118.722 138.376 100.785 136.594 91.4027Z" fill="white"/>
<path d="M201.549 114.109C202.908 113.383 204.33 113.244 205.715 113.531C208.56 114.122 211.358 114.01 214.211 113.594C215.519 113.401 216.9 113.692 218.546 113.782C215.989 117.629 216.258 121.776 215.419 125.673C213.505 134.563 207.694 139.923 198.933 142.082C187.024 145.02 174.986 137.303 172.684 125.458C172.315 123.559 172.197 121.593 172.183 119.653C172.128 112.326 172.183 104.999 172.147 97.6723C172.128 94.6179 171.577 93.1758 169.476 89.8482C172.024 88.7509 172.206 86.5475 172.201 84.2096C172.179 74.7688 172.169 65.3323 172.201 55.8915C172.215 51.4442 173.313 47.2836 175.893 43.5574C181.016 36.1543 190.437 32.5804 199.207 34.7256C208.231 36.9336 214.685 44.1127 215.72 53.0879C215.866 54.3329 215.998 55.578 216.185 56.8185C216.527 59.1071 217.333 61.212 218.951 63.0393C216.098 63.8858 213.4 64.0649 210.715 62.8333C210.378 62.681 209.854 62.6452 209.526 62.793C207.101 63.8768 204.59 63.8947 202.024 63.523C201.486 63.4469 201.317 63.205 201.508 62.7168C201.736 62.1346 201.887 61.5031 202.229 60.9926C203.003 59.8281 203.409 58.5876 203.532 57.2037C203.897 53.1506 203.705 49.1691 202.197 45.3175C200.697 41.4972 197.844 39.6252 193.733 39.7775C189.722 39.9253 186.809 42.1242 185.67 45.9221C184.881 48.5555 184.43 51.2382 184.439 54.0105C184.462 64.141 184.462 74.2761 184.394 84.4067C184.38 86.7042 184.717 88.6972 187.083 89.8572C184.467 93.3012 184.334 97.1797 184.38 101.152C184.457 107.718 184.38 114.288 184.366 120.854C184.362 124.298 184.681 127.715 185.715 131.015C186.905 134.795 189.941 136.95 193.911 136.999C197.994 137.048 200.957 135.118 202.242 131.262C204.157 125.52 204.635 120.137 201.54 114.095L201.549 114.109ZM178.482 124.916C180.51 115.717 180.921 58.8697 179.024 51.4353C177.033 75.9198 176.828 100.418 178.482 124.916Z" fill="white"/>
<path d="M268.108 116.183C268.167 117.387 268.263 118.44 268.267 119.488C268.285 123.644 268.313 127.805 268.267 131.961C268.226 135.508 268.513 138.947 270.993 142.082C269.247 142.244 267.729 142.45 266.207 142.508C255.902 142.915 245.601 142.866 235.3 142.315C233.86 142.239 232.433 142.002 230.997 141.872C230.651 141.84 230.264 141.881 229.94 142.006C227.743 142.844 225.496 142.942 223.203 142.548C222.365 142.405 222.114 141.948 222.547 141.222C224.092 138.62 224.461 135.759 224.466 132.83C224.484 121.311 224.48 109.792 224.466 98.2726C224.466 95.2765 223.892 92.4281 221.877 90.0589C221.918 89.9648 221.927 89.8797 221.968 89.8618C223.864 88.8765 224.475 87.2284 224.471 85.2444C224.471 71.1502 224.48 57.0606 224.457 42.9664C224.452 39.9568 223.564 37.1845 221.64 34.6183C224.32 33.9152 226.873 33.6644 229.384 34.7034C230.104 35.0035 230.701 35.0303 231.389 34.7751C233.864 33.8569 236.362 33.9555 238.791 34.587C238.203 36.5531 237.515 38.443 237.091 40.3912C236.294 44.0323 236.576 47.7316 236.636 51.4265C236.731 57.392 236.649 63.362 236.667 69.3319C236.681 74.6436 236.754 79.9552 236.754 85.2668C236.754 87.2642 237.023 89.0557 239.389 89.8126C236.996 92.9118 236.754 96.3961 236.754 99.97C236.763 109.935 236.708 119.9 236.713 129.865C236.713 131.177 236.822 132.507 237.078 133.792C237.451 135.687 238.55 136.766 240.51 136.838C244.297 136.977 248.094 137.017 251.877 136.86C254.265 136.762 255.487 135.427 255.806 133.094C255.97 131.889 256.066 130.657 256.016 129.448C255.87 126.156 257.324 123.586 259.607 121.369C261.727 119.309 264.138 117.656 266.909 116.541C267.242 116.406 267.602 116.326 268.108 116.174V116.183ZM231.403 51.6907C229.343 76.0543 229.097 100.431 230.87 124.817C232.939 100.454 233.14 76.0767 231.403 51.6907Z" fill="white"/>
<path d="M25.7507 57.2564C25.2886 56.8783 25.8347 56.1222 26.2968 55.8701C26.7589 56.4582 27.431 56.4582 29.5734 56.4582C28.6072 57.6764 26.7589 58.0125 25.7927 57.2564H25.7507Z" fill="url(#paint0_linear_231_47892)"/>
<path d="M44.5281 60.2389C43.6879 60.0709 43.898 59.1047 44.192 58.7266C44.8641 59.0207 45.4522 58.7266 47.3846 57.7604C47.0905 59.2727 45.7883 60.3649 44.5281 60.2389Z" fill="url(#paint1_linear_231_47892)"/>
<path d="M25.3306 14.9967C24.2804 15.5428 23.2302 16.2989 22.3901 16.9711C21.5919 17.6012 23.1882 19.2395 23.1882 19.2395C24.3644 18.0213 25.6247 16.761 26.8009 15.8369C26.2968 15.5848 25.8347 15.2908 25.3306 14.9967Z" fill="url(#paint2_linear_231_47892)"/>
<path d="M48.0987 15.7528C47.4686 15.4588 46.9645 16.467 46.9225 17.0551C47.7627 17.2651 48.1407 17.8952 49.2749 20.1216C50.0311 18.4833 49.401 16.3829 48.0987 15.7528Z" fill="url(#paint3_linear_231_47892)"/>
<path d="M27.0949 22.264C26.4228 22.096 25.2046 22.4321 24.1124 21.7179C24.6585 22.4741 26.8009 23.8603 24.9105 24.4904C24.4904 26.7168 30.7076 23.2722 27.0949 22.306V22.264Z" fill="#060A0C"/>
<path d="M24.2804 48.9809C24.2804 48.9809 24.4484 49.0229 24.4904 49.0649C24.9945 49.3169 26.0447 51.2073 25.0365 51.5013C26.8009 50.9972 27.641 52.4255 27.599 54.0218C27.599 55.9121 26.6328 57.8865 25.7087 57.2984C26.2968 58.0125 30.3715 59.8188 32.0518 59.8608C32.892 58.7686 33.6901 57.5504 34.7403 56.7103C36.6306 55.114 38.521 55.198 40.6634 55.7861C40.8734 54.2738 40.8734 52.5515 40.4533 50.5771C40.3273 49.947 44.4861 57.2564 44.36 58.8526C44.9482 59.0627 45.2002 60.2389 44.4861 60.2809C45.4942 60.1969 46.3344 60.2809 47.2586 59.7348C48.0567 59.2307 48.3508 58.4326 48.2247 57.4664C48.0567 56.2482 49.3589 55.7861 50.2411 55.198C50.7032 54.9039 51.7114 54.3998 51.9634 53.8537C52.1315 53.4337 51.8374 53.3076 51.5433 53.0556C50.7032 52.2995 50.2411 51.2913 49.611 50.3251C48.3088 48.3087 47.5946 46.3344 47.1745 43.9819C46.7545 41.6715 47.8047 39.8232 49.1909 38.0169C50.1991 36.6726 51.8794 36.6306 53.3917 36.6726C54.4419 36.6726 56.4162 37.0507 56.7943 35.6644C57.3824 33.27 57.8865 29.8254 56.6683 27.515C55.9541 27.851 55.156 28.3971 54.3579 28.2711C53.0976 28.0611 55.6181 24.0703 55.9961 23.6923C56.3322 23.3562 56.6683 23.0202 56.9623 22.6841C57.0883 22.5581 57.7605 21.5079 57.8865 21.5079C56.2482 21.4239 55.408 21.0038 54.988 20.5417L54.1898 20.2477L51.8374 22.012H50.8712L51.7954 21.5499L53.8118 19.5335L53.3917 17.7692C52.2575 16.761 50.4511 15.7108 48.1827 15.7948C48.2247 15.7948 46.6705 18.0212 46.2924 18.3153C45.1582 19.2395 43.7299 20.1636 42.4697 20.9198C39.7392 22.5581 35.4544 21.97 34.1942 18.8614C33.6061 17.3911 32.7239 16.2989 31.3797 15.3748C30.6236 14.8287 29.8674 14.8707 28.9853 14.8707C28.2291 14.8707 27.641 14.6186 26.8849 14.4926C25.1206 14.2406 23.5243 15.8369 22.3901 17.0131C23.7763 16.509 26.0447 19.3655 26.3388 20.4997C26.8009 22.432 25.5826 23.3562 23.8183 22.9361C21.7179 22.432 19.5335 22.306 17.5172 23.3142C18.4834 23.8603 19.7436 25.7086 19.1555 26.7168C18.1893 28.3971 16.9291 29.9094 16.1729 31.6737C16.9291 31.6737 17.7692 32.0518 18.4834 31.7577C18.9875 31.5897 19.4495 31.1276 19.9956 31.2116C20.4577 31.2957 20.9198 31.6737 21.3399 31.9678C20.6678 32.1358 19.9956 31.9678 19.3235 32.1358C18.6094 32.3038 18.5254 32.7239 18.0213 33.228C17.5172 33.6901 16.8451 33.5641 16.2149 33.7321C14.4086 34.1942 14.8707 36.8827 13.0224 37.2187C13.6945 38.2269 14.9127 38.2269 15.9629 37.8068C16.467 37.5968 16.8031 37.1767 17.3071 37.0087C18.6514 36.5466 19.9956 37.3447 21.3399 37.3868C22.5581 37.3868 23.5663 36.7146 24.8685 36.7986C24.9105 37.9749 24.6585 39.0671 24.6165 40.2013C24.5325 41.4615 24.3644 42.4697 23.6083 43.4779C22.4741 44.9901 21.4659 44.6541 19.7856 44.36C20.3737 45.7463 20.8778 47.5526 21.97 48.6448C22.6841 49.3169 23.6083 48.7708 24.4064 48.9388L24.2804 48.9809Z" fill="url(#paint4_radial_231_47892)"/>
<path d="M42.9318 22.6001C42.9318 22.6001 41.9236 17.0551 41.8816 16.677C41.7976 16.341 43.6039 10.4179 43.6039 10.4179L43.6879 5.92307C43.6879 5.92307 43.1838 9.70375 42.9738 10.4599C42.7638 11.258 40.0753 16.2149 39.8232 16.719C39.6132 17.2231 38.8571 17.4752 38.8571 17.4752L37.5968 17.0551L36.8827 12.7703C36.8827 12.7703 36.5887 16.467 36.7567 17.3071C36.9247 18.1473 36.6307 22.012 35.8325 22.348C35.0344 22.6841 42.9318 22.4741 42.9318 22.4741V22.6001Z" fill="#060A0C"/>
<path d="M25.6246 35.7905L24.4484 37.8488L20.9618 39.1511L17.9373 42.0496L10.796 46.2504L18.3993 42.8057L21.6759 40.2853L26.0867 40.5793L27.557 40.0332C27.557 40.0332 30.1195 34.5722 25.5826 35.7485L25.6246 35.7905Z" fill="#060A0C"/>
<path d="M42.2597 40.6214L44.024 40.9994L47.3846 43.0998L51.4593 44.36L58.3486 48.5608L52.2575 42.9318L48.6868 41.1254L47.2165 37.0087H45.8303C45.8303 37.0087 39.3611 37.3027 42.2597 40.6214Z" fill="#060A0C"/>
<path d="M50.7032 37.0507L48.8969 37.7228C48.6028 38.815 48.3087 39.9072 48.4768 40.6633L54.3998 40.5373L59.8188 42.0496L50.7032 37.0927V37.0507Z" fill="#060A0C"/>
<defs>
<filter id="filter0_f_231_47892" x="34.5428" y="26.0061" width="342.457" height="124.819" filterUnits="userSpaceOnUse" color-interpolation-filters="sRGB">
<feFlood flood-opacity="0" result="BackgroundImageFix"/>
<feBlend mode="normal" in="SourceGraphic" in2="BackgroundImageFix" result="shape"/>
<feGaussianBlur stdDeviation="4" result="effect1_foregroundBlur_231_47892"/>
</filter>
<linearGradient id="paint0_linear_231_47892" x1="26.9981" y1="58.5461" x2="27.7672" y2="56.4568" gradientUnits="userSpaceOnUse">
<stop offset="0.32" stop-color="#060A0C"/>
<stop offset="1" stop-color="#E4E5E6"/>
</linearGradient>
<linearGradient id="paint1_linear_231_47892" x1="45.606" y1="60.5551" x2="45.3327" y2="58.3455" gradientUnits="userSpaceOnUse">
<stop offset="0.42" stop-color="#060A0C"/>
<stop offset="1" stop-color="#E4E5E6"/>
</linearGradient>
<linearGradient id="paint2_linear_231_47892" x1="23.2154" y1="15.9263" x2="24.6597" y2="17.3533" gradientUnits="userSpaceOnUse">
<stop offset="0.33" stop-color="#060A0C"/>
<stop offset="1" stop-color="#A9A9A9"/>
</linearGradient>
<linearGradient id="paint3_linear_231_47892" x1="51.2874" y1="16.52" x2="49.5664" y2="18.3798" gradientUnits="userSpaceOnUse">
<stop offset="0.32" stop-color="#060A0C"/>
<stop offset="0.58" stop-color="#777676"/>
<stop offset="0.82" stop-color="#E4E5E6"/>
<stop offset="1" stop-color="#010101"/>
</linearGradient>
<radialGradient id="paint4_radial_231_47892" cx="0" cy="0" r="1" gradientUnits="userSpaceOnUse" gradientTransform="translate(37.1898 37.3684) rotate(135) scale(27.4637)">
<stop offset="0.52" stop-color="#010101"/>
<stop offset="0.53" stop-color="#0E0F0E"/>
<stop offset="0.57" stop-color="#454846"/>
<stop offset="0.58" stop-color="#464947"/>
<stop offset="0.59" stop-color="#585C5A"/>
<stop offset="0.6" stop-color="#626363"/>
<stop offset="0.62" stop-color="#7D777C"/>
<stop offset="0.63" stop-color="#80797F"/>
<stop offset="0.65" stop-color="#878186"/>
<stop offset="0.68" stop-color="#9D979C"/>
<stop offset="0.72" stop-color="#BFBCBF"/>
<stop offset="0.77" stop-color="#EFEEEF"/>
<stop offset="0.78" stop-color="white"/>
<stop offset="0.88" stop-color="#CBCBCD"/>
<stop offset="1" stop-color="#C2CDD0"/>
</radialGradient>
</defs>
</svg>
